<?xml version="1.0" encoding="utf-8"?>
<!-- Generator: Adobe Illustrator 25.0.1, SVG Export Plug-In . SVG Version: 6.00 Build 0)  -->
<svg version="1.1" id="Layer_1" xmlns="http://www.w3.org/2000/svg" xmlns:xlink="http://www.w3.org/1999/xlink" x="0px" y="0px"
	 viewBox="0 0 512 512" style="enable-background:new 0 0 512 512;" xml:space="preserve">
<path d="M287.3,256c0,17.3-14,31.3-31.3,31.3s-31.3-14-31.3-31.3s14-31.3,31.3-31.3S287.3,238.7,287.3,256z"/>
<path d="M382.7,160.2c-2.6-7-6.8-13.5-12.1-18.7c-5.2-5.4-11.6-9.6-18.7-12.1c-5.7-2.2-14.4-4.9-30.2-5.6c-17.2-0.7-22.3-1-65.7-1
	c-43.5,0-48.6,0.2-65.7,0.9c-15.9,0.7-24.5,3.4-30.2,5.6c-7.1,2.6-13.5,6.8-18.7,12.1c-5.4,5.2-9.6,11.6-12.1,18.7
	c-2.2,5.7-4.9,14.4-5.6,30.2c-0.7,17.2-1,22.3-1,65.7s0.2,48.6,1,65.7c0.7,15.9,3.4,24.5,5.6,30.2c2.6,7.1,6.8,13.5,12.1,18.7
	c5.2,5.4,11.6,9.6,18.7,12.1c5.7,2.2,14.4,4.9,30.2,5.6c17.2,0.7,22.3,0.9,65.7,0.9c43.5,0,48.6-0.2,65.7-0.9
	c15.9-0.7,24.5-3.4,30.2-5.6c14.2-5.5,25.4-16.7,30.9-30.9c2.2-5.7,4.9-14.4,5.6-30.2c0.7-17.2,0.9-22.3,0.9-65.7
	c0-43.5-0.2-48.6-0.9-65.7C387.5,174.6,384.9,166,382.7,160.2z M255.9,339.7c-46.1,0-83.5-37.3-83.5-83.5s37.4-83.5,83.5-83.5
	s83.5,37.3,83.5,83.5S302,339.7,255.9,339.7z M342.8,188.9c-10.7,0-19.5-8.8-19.5-19.5s8.8-19.5,19.5-19.5s19.5,8.8,19.5,19.5
	S353.5,188.9,342.8,188.9z"/>
<path d="M256,0C114.6,0,0,114.6,0,256s114.6,256,256,256s256-114.6,256-256S397.4,0,256,0z M433.1,384.8
	c-7.6,19.5-22.9,34.9-42.4,42.4c-7.8,3.1-19.6,6.7-41.4,7.7c-23.5,1-30.5,1.2-90.2,1.2c-59.5,0-66.6-0.2-90.2-1.2
	c-21.7-1-33.6-4.6-41.4-7.7c-9.6-3.5-18.5-9.3-25.6-16.7c-7.4-7.1-13-15.9-16.7-25.6c-3.1-7.8-6.7-19.6-7.7-41.4
	c-1.1-23.5-1.4-30.6-1.4-90.2c0-59.5,0.3-66.6,1.4-90.2c1-21.7,4.6-33.6,7.7-41.4c3.5-9.6,9.3-18.5,16.7-25.6
	c7.1-7.4,15.9-13,25.6-16.7c7.8-3.1,19.6-6.7,41.4-7.7c23.5-1,30.5-1.2,90.2-1.2c59.5,0,66.6,0.3,90.2,1.4c21.7,1,33.6,4.6,41.4,7.7
	c9.6,3.5,18.5,9.3,25.6,16.7c7.4,7.1,13,16,16.7,25.6c3.1,7.9,6.7,19.7,7.8,41.2c1,23.5,1.2,30.5,1.2,90.2c0,59.5-0.2,66.6-1.2,90.2
	C439.8,365.1,436.2,377,433.1,384.8z"/>
</svg>
