<?xml version="1.0" encoding="utf-8"?>
<!-- Generator: Adobe Illustrator 25.0.1, SVG Export Plug-In . SVG Version: 6.00 Build 0)  -->
<svg version="1.1" id="Layer_1" xmlns="http://www.w3.org/2000/svg" xmlns:xlink="http://www.w3.org/1999/xlink" x="0px" y="0px"
	 viewBox="0 0 512 512" style="enable-background:new 0 0 512 512;" xml:space="preserve">
<g>
	<path d="M261.8,420.2l-5.3-3.2c-33.8,16.4-69.8,45.2-89.5,79.2c27.7,10.3,57.7,15.9,89,15.9c31.8,0,62.2-5.8,90.3-16.4
		C325.1,462.4,295.4,439.8,261.8,420.2z"/>
	<path d="M238.6,333.6c6.8,5.7,13.1,10.6,18.7,14.6c3.7-2.7,7.3-5.4,10.6-8.2c1.8-1.5,3.7-3,5.2-4.5l0.3-0.3
		c1.6-1.4,3.1-2.9,4.7-4.3l0.7-0.7c1.3-1.3,2.7-2.6,3.9-4c0.4-0.4,0.8-0.9,1.2-1.4l3.1-3.4l1.9-2.3c0.7-0.8,1.5-1.7,2.1-2.5
		c1.3-1.6,2.6-3.3,3.7-5c12.7-17,19.6-37.5,19.8-58.7c0-22.6-6.7-44.7-19.1-63.6c-1.5-2.4-3.3-4.8-5.1-7.3
		c-7.3-10.2-15.9-19.4-25.6-27.4c-0.2-0.2-0.4-0.3-0.6-0.5l-0.5-0.1c-0.9-0.6-1.4-0.9-1.4-0.9c-1-0.6-2.1-1.1-3.3-1.4
		c-1-0.2-1.9-0.3-2.9-0.3c-0.8,0-1.6,0.1-2.3,0.3c-1.9,0.5-3.7,1.4-5.2,2.7c-0.6,0.4-1.3,1-2,1.6c-11.3,9.7-21.2,20.9-29.3,33.3
		c-12.5,18.9-19.2,41-19.3,63.6c0,15.3,3.6,30.3,10.6,43.9l1.1,2.2c0.5,0.9,1,1.8,1.5,2.7C218.8,313.7,228,324.4,238.6,333.6z"/>
	<path d="M256,0C114.6,0,0,114.6,0,256c0,88.2,44.6,165.9,112.4,211.9c1.9-3,4.9-7.4,7.4-11.1c2.7-4,35-49.1,84.5-75.7
		c0,0-1.2-0.9-1.8-1.4l-1-0.9c-26.4-22.9-44.6-48.1-54.5-75.4c0-0.3-0.2-0.5-0.4-0.9c-5.1-13.8-8-28.3-8.5-43
		c-0.3-6.2-0.2-12.4,0.3-18.6v-0.6c0-1.6,0-2.6,0-2.6c0.6-8.6,2-17.2,4-25.6c9.3-38.4,31.5-67.6,53.2-88.2h-0.2
		c14.7-14.1,31.3-26.2,49.3-35.8h0.3c3.4-1.7,7.2-2.6,11-2.6c2.7,0,5.3,0.4,7.8,1.2c0,0,4.6,0.7,20.9,12c3.1,2.1,6.5,4.5,10.2,7.3
		c30.5,23.2,79.5,72.1,79.5,147c0,3.1,0,6.1-0.3,9.2c0,1.2-0.2,2.4-0.3,3.7c0,1.8-0.3,3.7-0.5,5.4c-0.2,1.7-0.4,3.1-0.7,4.7
		c-0.3,1.5-0.4,2.8-0.6,4.2s-0.7,3.7-1.1,5.3c-0.2,1.1-0.4,2.3-0.7,3.4c-0.5,1.9-1,3.7-1.6,5.7c-0.3,1-0.5,1.9-0.8,2.8
		c-0.7,2.1-1.4,4.1-2.1,6.1c-0.3,0.8-0.5,1.5-0.8,2.3c-0.8,2.2-1.7,4.3-2.6,6.4l-0.8,1.8c-1,2.2-2.1,4.5-3.2,6.7
		c-0.3,0.5-0.5,1-0.7,1.4c-1.2,2.3-2.5,4.5-3.7,6.8c-0.2,0.4-0.4,0.7-0.6,1.1c-1.4,2.4-2.9,4.7-4.4,7l-0.5,0.8
		c-1.6,2.4-3.3,4.8-5,7.1c-0.1,0.2-0.2,0.4-0.4,0.5c-1.8,2.4-3.7,4.8-5.6,7.3L337,353c-2,2.4-4.1,4.8-6.3,7.3
		c-2.2,2.4-4.5,4.8-6.8,7.3c-4.9,4.7-10,9.4-15.3,13.9l3.4,1.9c47.6,27.2,78.5,70.7,81.3,74.8c2.4,3.5,4.6,7,6.3,9.7
		C467.4,421.9,512,344.2,512,256C512,114.6,397.4,0,256,0z"/>
</g>
</svg>
